<svg class="SVGInline-svg" width="23" height="18" viewBox="0 0 23 18" xmlns="http://www.w3.org/2000/svg"><g fill="none"><path d="M3.986 17.166c.777.065 2.302.122 4.27.168 1.3.031 2.953.059 3.206.059.09 0 .244 0 .461-.003.36-.002.758-.008 1.188-.016a97.225 97.225 0 003.578-.127 49.49 49.49 0 002.593-.206l.071.001c.795-.057 1.364-.273 1.944-.944.46-.493.835-1.842.839-2.317l.035-.333a41.2 41.2 0 00.077-.89c.071-.92.114-1.84.114-2.695V7.914a35.83 35.83 0 00-.114-2.553c-.039-.507-.116-1.31-.116-1.321 0-.385-.367-1.725-.804-2.217-.594-.658-1.171-.877-1.893-.935l-.198-.002C17.888.784 16.15.71 14.22.663c-1.177-.03-2.466-.049-2.76-.049-.32 0-1.568.022-2.736.058-1.93.06-3.658.156-5.045.294l-.07-.002c-.795.058-1.364.274-1.944.945-.46.493-.835 1.842-.839 2.317l-.035.333a41.2 41.2 0 00-.078.89C.643 6.369.6 7.289.6 8.144v1.949c.004.807.046 1.673.113 2.553.04.506.117 1.31.117 1.321 0 .385.367 1.724.814 2.228.191.223.399.397.623.53.39.233.721.316 1.298.394.102 0 .146.001.214.008.07.007.138.02.207.039z" stroke="#FFF" stroke-width="1.2"></path><path d="M15.81 8.79L8.57 5.05a.384.384 0 00-.38 0c-.115.069-.19.17-.19.305v7.31c0 .134.076.235.19.302a.382.382 0 00.191.034c.076 0 .114 0 .19-.034l7.239-3.57c.114-.068.19-.169.19-.303 0-.135-.076-.236-.19-.304z" fill="#FFF"></path></g></svg>